<svg width="90" height="90" viewBox="0 0 90 90" fill="none" xmlns="http://www.w3.org/2000/svg">
<rect opacity="0.08" width="90" height="90" rx="45" fill="url(#paint0_linear_2_3428)"/>
<path d="M39.1094 29.772C40.1069 29.8023 41.0727 29.9765 42.0085 30.2947H42.1019C42.1652 30.3248 42.2127 30.3581 42.2444 30.3881C42.5943 30.5006 42.9252 30.6272 43.2419 30.8014L43.8435 31.0706C44.081 31.1972 44.366 31.4331 44.5244 31.5297C44.6827 31.6231 44.8569 31.7197 44.9994 31.829C46.7585 30.4847 48.8944 29.7564 51.0952 29.772C52.0943 29.772 53.0918 29.9131 54.0402 30.2314C59.8843 32.1314 61.9901 38.5439 60.231 44.1489C59.2335 47.0131 57.6027 49.6272 55.4668 51.7631C52.4094 54.724 49.0543 57.3523 45.4427 59.6165L45.0469 59.8556L44.6352 59.6006C41.011 57.3523 37.6369 54.724 34.551 51.7473C32.4293 49.6114 30.7969 47.0131 29.7835 44.1489C27.9944 38.5439 30.1002 32.1314 36.0076 30.1981C36.4668 30.0398 36.9402 29.929 37.4152 29.8672H37.6052C38.0501 29.8023 38.4919 29.772 38.9352 29.772H39.1094ZM53.2169 34.7756C52.5677 34.5523 51.8552 34.9022 51.6177 35.5672C51.396 36.2322 51.7444 36.9606 52.4094 37.1965C53.4243 37.5765 54.1035 38.5756 54.1035 39.6823V39.7314C54.0735 40.094 54.1827 40.4439 54.4044 40.7131C54.626 40.9822 54.9585 41.139 55.3069 41.1722C55.956 41.1548 56.5102 40.6339 56.5577 39.9673V39.7789C56.6052 37.5606 55.261 35.5514 53.2169 34.7756Z" fill="url(#paint1_linear_2_3428)"/>
<defs>
<linearGradient id="paint0_linear_2_3428" x1="0" y1="0" x2="90" y2="90" gradientUnits="userSpaceOnUse">
<stop stop-color="#8482FF"/>
<stop offset="1" stop-color="#7723FE"/>
</linearGradient>
<linearGradient id="paint1_linear_2_3428" x1="29.166" y1="29.7717" x2="59.2103" y2="61.3971" gradientUnits="userSpaceOnUse">
<stop stop-color="#8482FF"/>
<stop offset="1" stop-color="#7723FE"/>
</linearGradient>
</defs>
</svg>
