<svg width="90" height="90" viewBox="0 0 90 90" fill="none" xmlns="http://www.w3.org/2000/svg">
<rect opacity="0.08" width="90" height="90" rx="45" fill="url(#paint0_linear_2_3417)"/>
<path d="M45.3701 49.021C50.8028 49.021 55.4416 49.8823 55.4416 53.3288C55.4416 56.7739 50.8326 57.6666 45.3701 57.6666C39.9374 57.6666 35.2987 56.8053 35.2987 53.3602C35.2987 49.9136 39.9077 49.021 45.3701 49.021ZM54.0564 46.9456C56.1333 46.9071 58.3662 47.1923 59.1914 47.3948C60.9394 47.7385 62.0892 48.44 62.5655 49.4596C62.9682 50.2966 62.9682 51.2677 62.5655 52.1033C61.8368 53.6847 59.4877 54.1924 58.5747 54.3236C58.3861 54.3521 58.2344 54.1881 58.2542 53.9984C58.7207 49.6165 55.0105 47.5388 54.0507 47.0611C54.0096 47.0398 54.0011 47.007 54.0053 46.987C54.0082 46.9727 54.0252 46.9499 54.0564 46.9456ZM36.4553 46.9427L36.8464 46.9462C36.8776 46.9505 36.8932 46.9733 36.896 46.9861C36.9003 47.0075 36.8917 47.0389 36.852 47.0617C35.8908 47.5394 32.1807 49.617 32.6471 53.9976C32.6669 54.1887 32.5167 54.3512 32.3281 54.3241C31.4151 54.1929 29.0659 53.6853 28.3372 52.1039C27.9332 51.2669 27.9332 50.2972 28.3372 49.4602C28.8136 48.4406 29.9619 47.739 31.71 47.394C32.5365 47.1929 34.768 46.9077 36.8464 46.9462L36.4553 46.9427ZM45.3701 32.3333C49.069 32.3333 52.0348 35.3135 52.0348 39.0353C52.0348 42.7556 49.069 45.7387 45.3701 45.7387C41.6713 45.7387 38.7054 42.7556 38.7054 39.0353C38.7054 35.3135 41.6713 32.3333 45.3701 32.3333ZM54.4179 33.4509C57.9906 33.4509 60.7962 36.8319 59.8407 40.5978C59.1956 43.1332 56.8606 44.8173 54.2591 44.7488C53.9982 44.7417 53.7416 44.7174 53.4935 44.6747C53.3135 44.6433 53.2228 44.4394 53.3248 44.2882C54.3172 42.8195 54.8829 41.0527 54.8829 39.1562C54.8829 37.177 54.2648 35.3318 53.1916 33.8188C53.1575 33.7718 53.132 33.699 53.166 33.6449C53.1944 33.6006 53.2469 33.5778 53.2965 33.5664C53.658 33.4923 54.0294 33.4509 54.4179 33.4509ZM36.4827 33.4508C36.8712 33.4508 37.2426 33.4921 37.6056 33.5663C37.6538 33.5777 37.7076 33.6019 37.736 33.6447C37.7686 33.6989 37.7445 33.7716 37.7105 33.8187C36.6373 35.3316 36.0191 37.1768 36.0191 39.156C36.0191 41.0526 36.5848 42.8193 37.5772 44.2881C37.6793 44.4392 37.5886 44.6431 37.4085 44.6745C37.159 44.7187 36.9038 44.7415 36.6429 44.7487C34.0414 44.8171 31.7064 43.1331 31.0614 40.5977C30.1044 36.8317 32.9101 33.4508 36.4827 33.4508Z" fill="url(#paint1_linear_2_3417)"/>
<defs>
<linearGradient id="paint0_linear_2_3417" x1="0" y1="0" x2="90" y2="90" gradientUnits="userSpaceOnUse">
<stop stop-color="#F9EC7D"/>
<stop offset="1" stop-color="#F5B100"/>
</linearGradient>
<linearGradient id="paint1_linear_2_3417" x1="28.0342" y1="32.3333" x2="52.1351" y2="65.472" gradientUnits="userSpaceOnUse">
<stop stop-color="#F9EC7D"/>
<stop offset="1" stop-color="#F5B100"/>
</linearGradient>
</defs>
</svg>
