<svg width="90" height="90" viewBox="0 0 90 90" fill="none" xmlns="http://www.w3.org/2000/svg">
<rect opacity="0.08" width="90" height="90" rx="45" fill="url(#paint0_linear_2_3406)"/>
<path d="M52.6011 30.6304C58.0619 30.6304 61.2848 33.7726 61.2848 39.1516H54.5856V39.2064C51.4764 39.2064 48.9559 41.6638 48.9559 44.6951C48.9559 47.7264 51.4764 50.1838 54.5856 50.1838H61.2848V50.6778C61.2848 55.9881 58.0619 59.1304 52.6011 59.1304H38.3019C32.8411 59.1304 29.6182 55.9881 29.6182 50.6778V39.0829C29.6182 33.7726 32.8411 30.6304 38.3019 30.6304H52.6011ZM60.1026 41.5117C60.7555 41.5117 61.2848 42.0277 61.2848 42.6643V46.6711C61.2772 47.3045 60.7524 47.8163 60.1026 47.8237H54.7122C53.1382 47.8443 51.7619 46.7936 51.4048 45.2989C51.226 44.371 51.477 43.4135 52.0905 42.683C52.704 41.9526 53.6173 41.5238 54.5856 41.5117H60.1026ZM55.3456 43.3641H54.8248C54.5051 43.3605 54.1972 43.4817 53.9698 43.7008C53.7424 43.92 53.6145 44.2187 53.6145 44.5305C53.6144 45.1845 54.1541 45.7167 54.8248 45.7243H55.3456C56.014 45.7243 56.5559 45.1959 56.5559 44.5442C56.5559 43.8925 56.014 43.3641 55.3456 43.3641ZM46.0567 36.7914H37.1196C36.4566 36.7914 35.917 37.3114 35.9093 37.9578C35.9093 38.6118 36.4489 39.144 37.1196 39.1516H46.0567C46.7252 39.1516 47.2671 38.6232 47.2671 37.9715C47.2671 37.3198 46.7252 36.7914 46.0567 36.7914Z" fill="url(#paint1_linear_2_3406)"/>
<defs>
<linearGradient id="paint0_linear_2_3406" x1="0" y1="0" x2="90" y2="90" gradientUnits="userSpaceOnUse">
<stop stop-color="#8482FF"/>
<stop offset="1" stop-color="#7723FE"/>
</linearGradient>
<linearGradient id="paint1_linear_2_3406" x1="29.6182" y1="30.6304" x2="57.9607" y2="62.1221" gradientUnits="userSpaceOnUse">
<stop stop-color="#8482FF"/>
<stop offset="1" stop-color="#7723FE"/>
</linearGradient>
</defs>
</svg>
